<svg aria-hidden="true" style="position: absolute; width: 0; height: 0; overflow: hidden;" version="1.1" xmlns="http://www.w3.org/2000/svg" xmlns:xlink="http://www.w3.org/1999/xlink">
<defs>
<symbol id="icon-arrow-circle-left" viewBox="0 0 32 32">
<path fill="currentColor" d="M0.5 16c0-8.563 6.938-15.5 15.5-15.5s15.5 6.938 15.5 15.5c0 8.563-6.937 15.5-15.5 15.5s-15.5-6.937-15.5-15.5zM16 29.5c7.419 0 13.5-6.006 13.5-13.5 0-7.419-6.006-13.5-13.5-13.5-7.419 0-13.5 6.006-13.5 13.5 0 7.419 6.006 13.5 13.5 13.5zM16.781 23.719l7.194-7.188c0.294-0.294 0.294-0.769 0-1.062l-7.194-7.188c-0.294-0.294-0.769-0.294-1.063 0l-0.431 0.431c-0.294 0.294-0.294 0.781 0.013 1.069l5.344 5.156h-11.894c-0.412 0-0.75 0.338-0.75 0.75v0.625c0 0.412 0.338 0.75 0.75 0.75h11.894l-5.35 5.156c-0.3 0.294-0.306 0.775-0.012 1.069l0.431 0.431c0.3 0.294 0.775 0.294 1.069 0z"></path>
</symbol>
<symbol id="icon-arrow-left" viewBox="0 0 32 32">
<path fill="currentColor" d="M21.981 1.91c0.198-0.198 0.447-0.298 0.719-0.298s0.521 0.099 0.719 0.298c0.397 0.397 0.397 1.042 0 1.439l-12.651 12.651 12.651 12.651c0.397 0.397 0.397 1.042 0 1.439s-1.042 0.397-1.439 0l-13.37-13.37c-0.397-0.397-0.397-1.042 0-1.439l13.37-13.37z"></path>
</symbol>
<symbol id="icon-arrow-right" viewBox="0 0 32 32">
<path fill="currentColor" d="M10.019 30.090c-0.198 0.198-0.447 0.298-0.719 0.298s-0.521-0.099-0.719-0.298c-0.397-0.397-0.397-1.042 0-1.439l12.651-12.651-12.651-12.651c-0.397-0.397-0.397-1.042 0-1.439s1.042-0.397 1.439 0l13.371 13.371c0.397 0.397 0.397 1.042 0 1.439l-13.37 13.37z"></path>
</symbol>


<symbol id="icon-speech-bubble" viewBox="0 0 32 32">
<path fill="#fff" style="fill: var(--color1, #fff)" d="M16 7.875c-0.345 0-0.625 0.28-0.625 0.625s0.28 0.625 0.625 0.625 0.625-0.28 0.625-0.625c0-0.345-0.28-0.625-0.625-0.625z"></path>
<path fill="#fff" style="fill: var(--color1, #fff)" d="M5.625 19.125c0.345 0 0.625-0.28 0.625-0.625s-0.28-0.625-0.625-0.625-0.625 0.28-0.625 0.625c0 0.345 0.28 0.625 0.625 0.625z"></path>
<path fill="#fff" style="fill: var(--color1, #fff)" d="M21 1.625c-5.627 0-10.245 3.879-10.602 8.766-5.359 0.269-10.398 4.133-10.398 9.359 0 2.184 0.864 4.3 2.438 5.977 0.311 1.283-0.067 2.643-1.004 3.581-0.179 0.179-0.232 0.448-0.135 0.681s0.324 0.386 0.577 0.386c1.782 0 3.5-0.699 4.777-1.931 1.243 0.424 2.866 0.681 4.348 0.681 5.626 0 10.244-3.878 10.602-8.764 1.309-0.058 2.67-0.3 3.747-0.667 1.276 1.232 2.994 1.931 4.777 1.931 0.253 0 0.481-0.152 0.577-0.386s0.043-0.502-0.136-0.681c-0.938-0.938-1.316-2.298-1.004-3.581 1.573-1.677 2.437-3.793 2.437-5.977 0-5.43-5.428-9.375-11-9.375zM11 27.875c-1.475 0-3.156-0.29-4.282-0.738-0.241-0.096-0.517-0.033-0.692 0.159-0.755 0.825-1.736 1.4-2.805 1.665 0.589-1.129 0.74-2.459 0.381-3.72-0.028-0.099-0.081-0.19-0.153-0.264-1.418-1.46-2.199-3.317-2.199-5.227 0-4.404 4.465-8.125 9.75-8.125 4.991 0 9.375 3.47 9.375 8.125 0 4.48-4.206 8.125-9.375 8.125zM28.551 16.227c-0.072 0.074-0.125 0.165-0.153 0.264-0.358 1.261-0.208 2.591 0.381 3.72-1.069-0.264-2.050-0.84-2.805-1.665-0.175-0.191-0.451-0.255-0.692-0.159-0.976 0.388-2.368 0.657-3.682 0.722-0.183-2.364-1.362-4.585-3.377-6.234h8.152c0.345 0 0.625-0.28 0.625-0.625s-0.28-0.625-0.625-0.625h-10.073c-1.419-0.722-3.012-1.143-4.651-1.232 0.359-4.198 4.415-7.518 9.349-7.518 5.285 0 9.75 3.721 9.75 8.125 0 1.91-0.781 3.766-2.199 5.227z"></path>
<path fill="#fff" style="fill: var(--color1, #fff)" d="M16 17.875h-7.875c-0.345 0-0.625 0.28-0.625 0.625s0.28 0.625 0.625 0.625h7.875c0.345 0 0.625-0.28 0.625-0.625s-0.28-0.625-0.625-0.625z"></path>
<path fill="#fff" style="fill: var(--color1, #fff)" d="M16 21.625h-10.375c-0.345 0-0.625 0.28-0.625 0.625s0.28 0.625 0.625 0.625h10.375c0.345 0 0.625-0.28 0.625-0.625s-0.28-0.625-0.625-0.625z"></path>
<path fill="#fff" style="fill: var(--color1, #fff)" d="M26.375 7.875h-7.875c-0.345 0-0.625 0.28-0.625 0.625s0.28 0.625 0.625 0.625h7.875c0.345 0 0.625-0.28 0.625-0.625s-0.28-0.625-0.625-0.625z"></path>
</symbol>
<symbol id="icon-like" viewBox="0 0 32 32">
<path fill="#fff" style="fill: var(--color1, #fff)" d="M32 19c0-0.801-0.319-1.548-0.868-2.099 0.623-0.681 0.94-1.595 0.853-2.545-0.156-1.695-1.683-3.023-3.477-3.023h-8.236c0.408-1.239 1.061-3.509 1.061-5.333 0-2.892-2.457-5.333-4-5.333-1.384 0-2.375 0.78-2.416 0.812-0.159 0.127-0.251 0.319-0.251 0.521v4.521l-3.841 8.319-0.159 0.081v-0.255c0-0.368-0.299-0.667-0.667-0.667h-6.667c-1.839 0-3.333 1.495-3.333 3.333v10.667c0 1.839 1.495 3.333 3.333 3.333h4c1.441 0 2.673-0.92 3.137-2.204 1.109 0.571 2.603 0.871 3.529 0.871h12.239c1.452 0 2.723-0.979 3.021-2.328 0.153-0.696 0.064-1.396-0.24-2.004 0.984-0.495 1.647-1.512 1.647-2.668 0-0.472-0.108-0.924-0.312-1.332 0.984-0.496 1.645-1.512 1.645-2.668zM29.188 20.645c-0.257 0.031-0.475 0.205-0.557 0.452-0.081 0.247-0.013 0.517 0.176 0.696 0.339 0.319 0.527 0.748 0.527 1.207 0 0.841-0.636 1.548-1.477 1.645-0.257 0.031-0.475 0.205-0.557 0.452-0.081 0.247-0.013 0.517 0.176 0.696 0.439 0.413 0.615 0.993 0.483 1.591-0.164 0.744-0.887 1.283-1.719 1.283h-12.239c-1.083 0-2.899-0.508-3.528-1.139-0.191-0.189-0.479-0.245-0.727-0.144-0.249 0.103-0.412 0.347-0.412 0.616 0 1.103-0.897 2-2 2h-4c-1.103 0-2-0.897-2-2v-10.667c0-1.103 0.897-2 2-2h6v0.667c0 0.231 0.12 0.445 0.317 0.568 0.195 0.117 0.44 0.129 0.648 0.028l1.333-0.667c0.135-0.067 0.243-0.179 0.307-0.316l4-8.667c0.040-0.088 0.061-0.184 0.061-0.28v-4.305c0.277-0.153 0.759-0.361 1.333-0.361 0.731 0 2.667 1.816 2.667 4 0 2.347-1.277 5.729-1.289 5.763-0.077 0.204-0.051 0.435 0.073 0.616 0.125 0.18 0.331 0.288 0.549 0.288h9.175c1.112 0 2.056 0.796 2.149 1.812 0.071 0.76-0.295 1.483-0.949 1.887-0.204 0.125-0.325 0.352-0.316 0.593s0.148 0.457 0.361 0.568c0.564 0.287 0.913 0.852 0.913 1.473 0 0.841-0.636 1.548-1.479 1.645z"></path>
<path fill="#fff" style="fill: var(--color1, #fff)" d="M10.002 15.333c-0.368 0-0.667 0.299-0.667 0.667v12c0 0.368 0.299 0.667 0.667 0.667s0.667-0.299 0.667-0.667v-12c0-0.368-0.299-0.667-0.667-0.667z"></path>
</symbol>
<symbol id="icon-credit-card" viewBox="0 0 32 32">
<path fill="#fff" style="fill: var(--color1, #fff)" d="M31.431 6.052c-0.415-0.49-0.995-0.79-1.635-0.843l-22.535-1.882c-0.64-0.053-1.262 0.146-1.752 0.56-0.488 0.413-0.787 0.991-0.842 1.627l-0.453 4.253h-1.81c-1.325 0-2.403 1.078-2.403 2.403v14.106c0 1.325 1.078 2.403 2.403 2.403h22.613c1.325 0 2.404-1.078 2.404-2.403v-2.288l0.802 0.067c0.068 0.006 0.135 0.008 0.202 0.008 1.236 0 2.289-0.951 2.393-2.204l1.174-14.057c0.053-0.64-0.146-1.262-0.56-1.752zM2.403 11.018h22.613c0.636 0 1.154 0.517 1.154 1.153v1.285h-24.92v-1.285c0-0.636 0.517-1.153 1.153-1.153zM1.25 14.707h24.92v2.593h-24.92v-2.593zM25.017 27.431h-22.613c-0.636 0-1.153-0.517-1.153-1.153v-7.728h24.92v7.728c0 0.636-0.517 1.153-1.154 1.153zM30.746 7.7l-1.174 14.057c-0.053 0.634-0.612 1.107-1.245 1.053l-0.906-0.076v-10.564c0-1.325-1.078-2.403-2.404-2.403h-19.546l0.44-4.127c0-0.005 0.001-0.009 0.001-0.014 0.053-0.634 0.611-1.107 1.245-1.053l22.535 1.882c0.307 0.026 0.586 0.169 0.785 0.405s0.294 0.534 0.269 0.841z"></path>
<path fill="#fff" style="fill: var(--color1, #fff)" d="M23.555 20.408h-6.015c-0.345 0-0.625 0.28-0.625 0.625v3.924c0 0.345 0.28 0.625 0.625 0.625h6.015c0.345 0 0.625-0.28 0.625-0.625v-3.924c0-0.345-0.28-0.625-0.625-0.625zM22.93 24.332h-4.765v-2.674h4.765v2.674z"></path>
</symbol>
<symbol id="icon-stack" viewBox="0 0 32 32">
<path fill="#fff" style="fill: var(--color1, #fff)" d="M21.998 13.333h-12c-0.368 0-0.667-0.299-0.667-0.667v-12c0-0.368 0.299-0.667 0.667-0.667h12c0.368 0 0.667 0.299 0.667 0.667v12c0 0.368-0.299 0.667-0.667 0.667zM10.665 12h10.667v-10.667h-10.667v10.667z"></path>
<path fill="#fff" style="fill: var(--color1, #fff)" d="M17.998 5.333h-4c-0.368 0-0.667-0.299-0.667-0.667v-4c0-0.368 0.299-0.667 0.667-0.667h4c0.368 0 0.667 0.299 0.667 0.667v4c0 0.368-0.299 0.667-0.667 0.667zM14.665 4h2.667v-2.667h-2.667v2.667z"></path>
<path fill="#fff" style="fill: var(--color1, #fff)" d="M16.002 25.333h-12.667c-0.368 0-0.667-0.299-0.667-0.667v-12c0-0.368 0.299-0.667 0.667-0.667h12.667c0.368 0 0.667 0.299 0.667 0.667v12c0 0.368-0.299 0.667-0.667 0.667zM4.002 24h11.333v-10.667h-11.333v10.667z"></path>
<path fill="#fff" style="fill: var(--color1, #fff)" d="M11.335 17.333h-4c-0.368 0-0.667-0.299-0.667-0.667v-4c0-0.368 0.299-0.667 0.667-0.667h4c0.368 0 0.667 0.299 0.667 0.667v4c0 0.368-0.299 0.667-0.667 0.667zM8.002 16h2.667v-2.667h-2.667v2.667z"></path>
<path fill="#fff" style="fill: var(--color1, #fff)" d="M28.665 25.333h-12.667c-0.368 0-0.667-0.299-0.667-0.667v-12c0-0.368 0.299-0.667 0.667-0.667h12.667c0.368 0 0.667 0.299 0.667 0.667v12c0 0.368-0.299 0.667-0.667 0.667zM16.665 24h11.333v-10.667h-11.333v10.667z"></path>
<path fill="#fff" style="fill: var(--color1, #fff)" d="M24.667 17.333h-4c-0.368 0-0.667-0.299-0.667-0.667v-4c0-0.368 0.299-0.667 0.667-0.667h4c0.368 0 0.667 0.299 0.667 0.667v4c0 0.368-0.299 0.667-0.667 0.667zM21.333 16h2.667v-2.667h-2.667v2.667z"></path>
<path fill="#fff" style="fill: var(--color1, #fff)" d="M31.333 32h-5.333c-0.368 0-0.667-0.299-0.667-0.667v-2h-5.333v2c0 0.368-0.299 0.667-0.667 0.667h-6.667c-0.368 0-0.667-0.299-0.667-0.667v-2h-5.333v2c0 0.368-0.299 0.667-0.667 0.667h-5.333c-0.368 0-0.667-0.299-0.667-0.667v-6.667c0-0.368 0.299-0.667 0.667-0.667h30.667c0.368 0 0.667 0.299 0.667 0.667v6.667c0 0.368-0.299 0.667-0.667 0.667zM26.667 30.667h4v-5.333h-29.333v5.333h4v-2c0-0.368 0.299-0.667 0.667-0.667h6.667c0.368 0 0.667 0.299 0.667 0.667v2h5.333v-2c0-0.368 0.299-0.667 0.667-0.667h6.667c0.368 0 0.667 0.299 0.667 0.667v2z"></path>
</symbol>
<symbol id="icon-delivery-truck" viewBox="0 0 32 32">
<path fill="#fff" style="fill: var(--color1, #fff)" d="M27.473 24.859c-0.542 0-1.072-0.16-1.523-0.461s-0.803-0.729-1.011-1.23c-0.208-0.501-0.262-1.052-0.157-1.584s0.366-1.021 0.75-1.404c0.383-0.384 0.872-0.645 1.404-0.751s1.083-0.052 1.584 0.156c0.501 0.207 0.929 0.559 1.231 1.010s0.462 0.981 0.462 1.523c-0 0.727-0.289 1.423-0.803 1.937s-1.21 0.803-1.937 0.804zM27.473 20.376c-0.344-0-0.681 0.101-0.968 0.293s-0.51 0.463-0.642 0.781c-0.132 0.318-0.167 0.668-0.1 1.006s0.233 0.648 0.476 0.892c0.243 0.244 0.554 0.41 0.892 0.477s0.688 0.033 1.006-0.099c0.318-0.132 0.59-0.355 0.782-0.641s0.294-0.623 0.294-0.968c-0-0.461-0.183-0.904-0.509-1.23s-0.768-0.51-1.23-0.511z"></path>
<path fill="#fff" style="fill: var(--color1, #fff)" d="M13.030 24.859c-0.542 0-1.073-0.16-1.524-0.461s-0.803-0.729-1.011-1.23c-0.208-0.501-0.263-1.052-0.157-1.584s0.366-1.021 0.75-1.404 0.872-0.645 1.404-0.751c0.532-0.106 1.083-0.052 1.584 0.156s0.929 0.559 1.231 1.010c0.301 0.451 0.462 0.981 0.462 1.523-0.001 0.726-0.289 1.423-0.803 1.937s-1.21 0.803-1.936 0.804zM13.030 20.376c-0.344-0-0.681 0.101-0.968 0.292s-0.51 0.463-0.643 0.781-0.167 0.668-0.1 1.006c0.067 0.338 0.233 0.648 0.476 0.892s0.554 0.41 0.892 0.477c0.338 0.067 0.688 0.033 1.006-0.099s0.59-0.355 0.782-0.641c0.191-0.286 0.294-0.623 0.294-0.968-0-0.461-0.184-0.904-0.509-1.23s-0.768-0.51-1.229-0.511z"></path>
<path fill="#fff" style="fill: var(--color1, #fff)" d="M31.080 22.617h-1.367c-0.133 0-0.26-0.053-0.354-0.146s-0.146-0.221-0.146-0.354c0-0.133 0.053-0.26 0.146-0.354s0.221-0.146 0.354-0.146h1.226v-2.651c-0-0.358-0.092-0.711-0.267-1.024l-2.707-4.853c-0.023-0.041-0.057-0.076-0.098-0.1s-0.087-0.037-0.135-0.037h-3.689v8.667h1.191c0.133 0 0.26 0.053 0.354 0.146s0.146 0.221 0.146 0.354c0 0.133-0.053 0.26-0.146 0.354s-0.221 0.146-0.354 0.146h-1.691c-0.133 0-0.26-0.053-0.354-0.146s-0.146-0.221-0.146-0.354v-9.667c0-0.133 0.053-0.26 0.146-0.354s0.221-0.146 0.354-0.146h4.189c0.226-0 0.447 0.060 0.642 0.174s0.355 0.278 0.465 0.475l2.706 4.853c0.257 0.462 0.392 0.982 0.393 1.511v2.793c-0 0.227-0.091 0.445-0.252 0.606s-0.379 0.251-0.606 0.252z"></path>
<path fill="#fff" style="fill: var(--color1, #fff)" d="M10.79 22.617h-4.794c-0.133 0-0.26-0.053-0.354-0.146s-0.146-0.221-0.146-0.354v-3.845c0-0.133 0.053-0.26 0.146-0.354s0.221-0.146 0.354-0.146c0.133 0 0.26 0.053 0.354 0.146s0.146 0.221 0.146 0.354v3.345h4.294c0.133 0 0.26 0.053 0.354 0.146s0.146 0.221 0.146 0.354c0 0.133-0.053 0.26-0.146 0.354s-0.221 0.146-0.354 0.146z"></path>
<path fill="#fff" style="fill: var(--color1, #fff)" d="M5.996 16.498c-0.133 0-0.26-0.053-0.354-0.146s-0.146-0.221-0.146-0.354v-3.357c0-0.133 0.053-0.26 0.146-0.354s0.221-0.146 0.354-0.146c0.133 0 0.26 0.053 0.354 0.146s0.146 0.221 0.146 0.354v3.359c-0.001 0.132-0.053 0.259-0.147 0.352s-0.221 0.146-0.353 0.146z"></path>
<path fill="#fff" style="fill: var(--color1, #fff)" d="M23.546 22.617h-8.278c-0.133 0-0.26-0.053-0.354-0.146s-0.146-0.221-0.146-0.354c0-0.133 0.053-0.26 0.146-0.354s0.221-0.146 0.354-0.146h7.778v-13.081h-16.55v2.059c0 0.133-0.053 0.26-0.146 0.354s-0.221 0.146-0.354 0.146-0.26-0.053-0.354-0.146c-0.094-0.094-0.146-0.221-0.146-0.354v-2.151c0-0.241 0.096-0.472 0.267-0.642s0.401-0.266 0.642-0.266h16.733c0.241 0 0.471 0.096 0.642 0.266s0.266 0.401 0.266 0.642v13.673c0 0.133-0.053 0.26-0.146 0.354s-0.221 0.146-0.354 0.146z"></path>
<path fill="#fff" style="fill: var(--color1, #fff)" d="M7.973 18.772h-6.346c-0.133 0-0.26-0.053-0.354-0.146s-0.146-0.221-0.146-0.354c0-0.133 0.053-0.26 0.146-0.354s0.221-0.146 0.354-0.146h6.346c0.133 0 0.26 0.053 0.354 0.146s0.146 0.221 0.146 0.354c0 0.133-0.053 0.26-0.146 0.354s-0.221 0.146-0.354 0.146z"></path>
<path fill="#fff" style="fill: var(--color1, #fff)" d="M13.030 16.498h-8.855c-0.133 0-0.26-0.053-0.354-0.146s-0.146-0.221-0.146-0.354c0-0.133 0.053-0.26 0.146-0.354s0.221-0.146 0.354-0.146h8.855c0.133 0 0.26 0.053 0.354 0.146s0.146 0.221 0.146 0.354c0 0.133-0.053 0.26-0.146 0.354s-0.221 0.146-0.354 0.146z"></path>
<path fill="#fff" style="fill: var(--color1, #fff)" d="M3.898 13.858h-3.458c-0.133 0-0.26-0.053-0.354-0.146s-0.146-0.221-0.146-0.354c0-0.133 0.053-0.26 0.146-0.354s0.221-0.146 0.354-0.146h3.458c0.133 0 0.26 0.053 0.354 0.146s0.146 0.221 0.146 0.354c0 0.133-0.053 0.26-0.146 0.354s-0.221 0.146-0.354 0.146z"></path>
<path fill="#fff" style="fill: var(--color1, #fff)" d="M9.441 11.096h-6.104c-0.133 0-0.26-0.053-0.354-0.146s-0.146-0.221-0.146-0.354c0-0.133 0.053-0.26 0.146-0.354s0.221-0.146 0.354-0.146h6.104c0.133 0 0.26 0.053 0.354 0.146s0.146 0.221 0.146 0.354c0 0.133-0.053 0.26-0.146 0.354s-0.221 0.146-0.354 0.146z"></path>
</symbol>
<symbol id="icon-magnifying-glass" viewBox="0 0 32 32">
<path fill="#fff" style="fill: var(--color1, #fff)" d="M18.225 8.737c-0.824-0.824-2.158-0.824-2.982 0l-3.435 3.435-0.858-0.858c-0.821-0.821-2.152-0.824-2.976 0-0.82 0.82-0.82 2.156 0 2.976l3.436 3.438c0.251 0.251 0.644 0.243 0.887-0.003l5.937-6.016c0.812-0.822 0.807-2.156-0.010-2.973zM17.345 10.832l-5.495 5.566-2.992-2.992c-0.333-0.333-0.333-0.875 0-1.208s0.874-0.334 1.208 0l1.3 1.3c0.244 0.244 0.64 0.244 0.884 0l3.877-3.877c0.336-0.336 0.879-0.336 1.215 0 0.333 0.333 0.335 0.876 0.004 1.211z"></path>
<path fill="#fff" style="fill: var(--color1, #fff)" d="M28.192 23.405l-6.122-5.249c2.313-4.036 1.647-9.143-1.659-12.45-4.040-4.039-10.578-4.040-14.618 0s-4.040 10.578 0 14.618c3.383 3.383 8.474 3.907 12.39 1.693l5.041 6.22c1.297 1.6 3.698 1.734 5.163 0.269 1.431-1.432 1.341-3.784-0.196-5.101zM6.677 19.44c-3.551-3.551-3.552-9.299 0-12.85s9.299-3.551 12.85 0c4.046 4.046 3.406 10.924-1.536 14.086-0 0-0 0-0 0-3.471 2.22-8.201 1.877-11.313-1.236zM27.504 27.622c-0.935 0.935-2.474 0.856-3.308-0.173l-4.957-6.116c0.826-0.612 1.554-1.341 2.139-2.125l6.001 5.145c0.981 0.841 1.050 2.344 0.125 3.268z"></path>
</symbol>
<symbol id="icon-check-mark" viewBox="0 0 32 32">
<path fill="#fff" style="fill: var(--color1, #fff)" d="M8.832 24.483l6.867 4.682c0.188 0.128 0.435 0.128 0.623 0l6.869-4.682c1.929-1.315 3.502-4.282 3.502-6.615v-9.824c-0.002-0.211-0.123-0.402-0.312-0.495l-10.124-4.972c-0.153-0.075-0.333-0.075-0.486 0l-10.126 4.957c-0.19 0.092-0.312 0.284-0.314 0.495v9.839c0 2.332 1.573 5.3 3.502 6.615zM6.433 8.373l9.578-4.686 9.58 4.701v9.48c0 1.943-1.413 4.608-3.021 5.704l-6.556 4.47-6.559-4.47c-1.607-1.096-3.021-3.761-3.021-5.704v-9.495z"></path>
<path fill="#fff" style="fill: var(--color1, #fff)" d="M7.55 26.353l8.145 5.552c0.189 0.128 0.436 0.128 0.625 0l8.15-5.551c2.516-1.715 4.496-5.442 4.496-8.485v-11.234c-0.004-0.212-0.127-0.403-0.318-0.495l-12.389-6.083c-0.154-0.075-0.334-0.075-0.488 0l-12.396 6.066c-0.192 0.091-0.315 0.283-0.32 0.495v11.25c0 3.043 1.98 6.77 4.495 8.485zM4.158 6.961l11.853-5.796 11.853 5.812v10.891c0 2.716-1.768 6.043-4.014 7.574l-7.834 5.34-7.841-5.34c-2.245-1.531-4.016-4.858-4.016-7.574v-10.907z"></path>
<path fill="#fff" style="fill: var(--color1, #fff)" d="M14.070 21.079c0.104 0.103 0.244 0.16 0.391 0.159h0.001c0.145 0.002 0.286-0.055 0.39-0.156l7.833-7.831c0.104-0.103 0.162-0.243 0.162-0.389s-0.058-0.286-0.162-0.389l-1.559-1.559c-0.215-0.215-0.564-0.215-0.78 0l-5.874 5.874-2.781-2.809c-0.214-0.216-0.563-0.218-0.78-0.004l-1.567 1.552c-0.104 0.103-0.163 0.243-0.163 0.389s0.057 0.285 0.16 0.388l4.73 4.775zM11.294 15.147l2.783 2.818c0.102 0.106 0.243 0.168 0.39 0.171h0.001c0.147-0.003 0.287-0.064 0.39-0.169l5.876-5.88 0.78 0.778-7.051 7.050-3.953-3.992 0.783-0.777z"></path>
</symbol>
<symbol id="icon-file" viewBox="0 0 32 32">
<path fill="#fff" style="fill: var(--color1, #fff)" d="M23.249 13.853v-6.056c0-0.173-0.080-0.333-0.193-0.46l-6.79-7.13c-0.127-0.133-0.307-0.207-0.487-0.207h-10.765c-1.987 0-3.575 1.621-3.575 3.608v20.355c0 1.988 1.587 3.582 3.575 3.582h8.497c1.607 2.668 4.529 4.455 7.856 4.455 5.055 0 9.184-4.108 9.184-9.17 0.007-4.422-3.168-8.117-7.303-8.977zM16.446 2.341l4.555 4.795h-2.955c-0.88 0-1.601-0.727-1.601-1.607v-3.188zM5.015 26.211c-1.247 0-2.241-1-2.241-2.248v-20.355c0-1.254 0.994-2.274 2.241-2.274h10.098v4.195c0 1.621 1.314 2.941 2.935 2.941h3.868v5.209c-0.2-0.007-0.36-0.027-0.533-0.027-2.328 0-4.468 0.894-6.082 2.294h-8.47c-0.367 0-0.667 0.3-0.667 0.667s0.3 0.667 0.667 0.667h7.23c-0.474 0.667-0.867 1.334-1.174 2.068h-6.056c-0.367 0-0.667 0.3-0.667 0.667s0.3 0.667 0.667 0.667h5.622c-0.167 0.667-0.253 1.407-0.253 2.147 0 1.2 0.233 2.388 0.654 3.388l-7.837-0.007zM21.375 30.673c-4.322 0-7.837-3.515-7.837-7.837s3.508-7.837 7.837-7.837c4.328 0 7.836 3.515 7.836 7.837s-3.515 7.837-7.836 7.837z"></path>
<path fill="#fff" style="fill: var(--color1, #fff)" d="M6.827 13.939h6.756c0.367 0 0.667-0.3 0.667-0.667s-0.3-0.667-0.667-0.667h-6.756c-0.367 0-0.667 0.3-0.667 0.667s0.3 0.667 0.667 0.667z"></path>
<path fill="#fff" style="fill: var(--color1, #fff)" d="M25.001 19.835l-5.042 4.615-2.468-2.681c-0.247-0.273-0.674-0.287-0.94-0.040-0.273 0.247-0.287 0.674-0.040 0.94l2.921 3.168c0.133 0.14 0.313 0.214 0.494 0.214 0.16 0 0.32-0.060 0.453-0.174l5.529-5.069c0.273-0.247 0.293-0.674 0.040-0.94s-0.674-0.287-0.947-0.033z"></path>
</symbol>

<symbol id="icon-circle-93" viewBox="0 0 32 32">
<path fill="#89c249" style="fill: var(--color1, #89c249)" d="M16 2.42c6.906 0 12.504 5.598 12.504 12.504s-5.598 12.504-12.504 12.504c-6.906 0-12.504-5.598-12.504-12.504s5.598-12.504 12.504-12.504z"></path>
</symbol>

<symbol id="icon-calendar" viewBox="0 0 32 32">
<path fill="#89c249" style="fill: var(--color1, #89c249)" d="M28.572 3.429h-3.429v-2.286c0-0.631-0.512-1.143-1.143-1.143s-1.143 0.512-1.143 1.143v2.286h-13.714v-2.286c0-0.631-0.512-1.143-1.143-1.143s-1.143 0.512-1.143 1.143v2.286h-3.429c-1.894 0-3.429 1.535-3.429 3.429v21.714c0 1.894 1.535 3.428 3.429 3.428h25.143c1.894 0 3.428-1.535 3.428-3.428v-21.714c0-1.894-1.535-3.429-3.428-3.429zM29.714 28.572c0 0.631-0.512 1.143-1.143 1.143h-25.143c-0.631 0-1.143-0.512-1.143-1.143v-14.857h27.428v14.857zM29.714 11.429h-27.428v-4.571c0-0.631 0.512-1.143 1.143-1.143h3.429v2.286c0 0.631 0.512 1.143 1.143 1.143s1.143-0.512 1.143-1.143v-2.286h13.714v2.286c0 0.631 0.512 1.143 1.143 1.143s1.143-0.512 1.143-1.143v-2.286h3.428c0.631 0 1.143 0.512 1.143 1.143v4.571h-0z"></path>
<path fill="#89c249" style="fill: var(--color1, #89c249)" d="M9.144 16h-2.286c-0.631 0-1.143 0.512-1.143 1.143s0.512 1.143 1.143 1.143h2.286c0.631 0 1.143-0.512 1.143-1.143s-0.512-1.143-1.143-1.143z"></path>
<path fill="#89c249" style="fill: var(--color1, #89c249)" d="M17.144 16h-2.286c-0.631 0-1.143 0.512-1.143 1.143s0.512 1.143 1.143 1.143h2.286c0.631 0 1.143-0.512 1.143-1.143s-0.512-1.143-1.143-1.143z"></path>
<path fill="#89c249" style="fill: var(--color1, #89c249)" d="M25.144 16h-2.286c-0.631 0-1.143 0.512-1.143 1.143s0.512 1.143 1.143 1.143h2.286c0.631 0 1.143-0.512 1.143-1.143s-0.512-1.143-1.143-1.143z"></path>
<path fill="#89c249" style="fill: var(--color1, #89c249)" d="M9.144 20.572h-2.286c-0.631 0-1.143 0.512-1.143 1.143s0.512 1.143 1.143 1.143h2.286c0.631 0 1.143-0.512 1.143-1.143s-0.512-1.143-1.143-1.143z"></path>
<path fill="#89c249" style="fill: var(--color1, #89c249)" d="M17.144 20.572h-2.286c-0.631 0-1.143 0.512-1.143 1.143s0.512 1.143 1.143 1.143h2.286c0.631 0 1.143-0.512 1.143-1.143s-0.512-1.143-1.143-1.143z"></path>
<path fill="#89c249" style="fill: var(--color1, #89c249)" d="M25.144 20.572h-2.286c-0.631 0-1.143 0.512-1.143 1.143s0.512 1.143 1.143 1.143h2.286c0.631 0 1.143-0.512 1.143-1.143s-0.512-1.143-1.143-1.143z"></path>
<path fill="#89c249" style="fill: var(--color1, #89c249)" d="M9.144 25.143h-2.286c-0.631 0-1.143 0.512-1.143 1.143s0.512 1.143 1.143 1.143h2.286c0.631 0 1.143-0.512 1.143-1.143s-0.512-1.143-1.143-1.143z"></path>
<path fill="#89c249" style="fill: var(--color1, #89c249)" d="M17.144 25.143h-2.286c-0.631 0-1.143 0.512-1.143 1.143s0.512 1.143 1.143 1.143h2.286c0.631 0 1.143-0.512 1.143-1.143s-0.512-1.143-1.143-1.143z"></path>
<path fill="#89c249" style="fill: var(--color1, #89c249)" d="M25.144 25.143h-2.286c-0.631 0-1.143 0.512-1.143 1.143s0.512 1.143 1.143 1.143h2.286c0.631 0 1.143-0.512 1.143-1.143s-0.512-1.143-1.143-1.143z"></path>
</symbol>
<symbol id="icon-box" viewBox="0 0 32 32">
<path fill="#89c249" style="fill: var(--color1, #89c249)" d="M31.137 6.81c0-0.406-0.245-0.772-0.621-0.926l-14.141-5.809c-0.244-0.1-0.517-0.1-0.761 0l-14.14 5.809c-0.375 0.154-0.621 0.52-0.621 0.926v18.38c0 0.406 0.245 0.772 0.621 0.926l14.14 5.809c0.241 0.099 0.512 0.101 0.76-0 0.012-0.004-0.523 0.216 14.142-5.809 0.375-0.154 0.621-0.52 0.621-0.926v-18.38zM15.996 11.621l-5.21-2.14 11.26-4.912 5.559 2.284-11.608 4.769zM2.856 8.388l4.495 1.847v5.21c0 0.553 0.448 1.001 1.001 1.001s1.001-0.448 1.001-1.001v-4.387l5.641 2.317v16.131l-12.138-4.986v-16.131zM15.996 2.083l3.471 1.426-11.26 4.912-3.819-1.569 11.608-4.769zM16.997 13.374l12.138-4.986v16.131l-12.138 4.986v-16.131z"></path>
</symbol>

<symbol id="icon-instagram" viewBox="0 0 32 32">
<path fill="currentColor" d="M31.969 9.408c-0.075-1.7-0.35-2.869-0.744-3.882-0.406-1.075-1.032-2.038-1.851-2.838-0.8-0.813-1.769-1.444-2.832-1.844-1.019-0.394-2.182-0.669-3.882-0.744-1.713-0.081-2.257-0.1-6.601-0.1s-4.888 0.019-6.595 0.094c-1.7 0.075-2.869 0.35-3.882 0.744-1.075 0.406-2.038 1.031-2.838 1.85-0.813 0.8-1.444 1.769-1.844 2.832-0.394 1.019-0.669 2.182-0.744 3.882-0.081 1.713-0.1 2.257-0.1 6.601s0.019 4.888 0.094 6.595c0.075 1.7 0.35 2.869 0.744 3.882 0.406 1.075 1.038 2.038 1.85 2.838 0.8 0.813 1.769 1.444 2.832 1.844 1.019 0.394 2.182 0.669 3.882 0.744 1.706 0.075 2.25 0.094 6.595 0.094s4.888-0.019 6.595-0.094c1.7-0.075 2.869-0.35 3.882-0.744 2.151-0.832 3.851-2.532 4.682-4.682 0.394-1.019 0.669-2.182 0.744-3.882 0.075-1.707 0.094-2.251 0.094-6.595s-0.006-4.888-0.081-6.595zM29.087 22.473c-0.069 1.563-0.331 2.407-0.55 2.969-0.538 1.394-1.644 2.5-3.038 3.038-0.563 0.219-1.413 0.481-2.969 0.55-1.688 0.075-2.194 0.094-6.464 0.094s-4.782-0.019-6.464-0.094c-1.563-0.069-2.407-0.331-2.969-0.55-0.694-0.256-1.325-0.663-1.838-1.194-0.531-0.519-0.938-1.144-1.194-1.838-0.219-0.563-0.481-1.413-0.55-2.969-0.075-1.688-0.094-2.194-0.094-6.464s0.019-4.782 0.094-6.464c0.069-1.563 0.331-2.407 0.55-2.969 0.256-0.694 0.663-1.325 1.2-1.838 0.519-0.531 1.144-0.938 1.838-1.194 0.563-0.219 1.413-0.481 2.969-0.55 1.688-0.075 2.194-0.094 6.464-0.094 4.276 0 4.782 0.019 6.464 0.094 1.563 0.069 2.407 0.331 2.969 0.55 0.694 0.256 1.325 0.662 1.838 1.194 0.531 0.519 0.938 1.144 1.194 1.838 0.219 0.563 0.481 1.413 0.55 2.969 0.075 1.688 0.094 2.194 0.094 6.464s-0.019 4.77-0.094 6.458z"></path>
<path fill="currentColor" d="M16.059 7.783c-4.538 0-8.22 3.682-8.22 8.22s3.682 8.22 8.22 8.22c4.539 0 8.22-3.682 8.22-8.22s-3.682-8.22-8.22-8.22zM16.059 21.335c-2.944 0-5.332-2.388-5.332-5.332s2.388-5.332 5.332-5.332c2.944 0 5.332 2.388 5.332 5.332s-2.388 5.332-5.332 5.332z"></path>
<path fill="currentColor" d="M26.524 7.458c0 1.060-0.859 1.919-1.919 1.919s-1.919-0.859-1.919-1.919c0-1.060 0.859-1.919 1.919-1.919s1.919 0.859 1.919 1.919z"></path>
</symbol>
<symbol id="icon-facebook" viewBox="0 0 32 32">
<path fill="currentColor" d="M21.329 5.313h2.921v-5.088c-0.504-0.069-2.237-0.225-4.256-0.225-4.212 0-7.097 2.649-7.097 7.519v4.481h-4.648v5.688h4.648v14.312h5.699v-14.311h4.46l0.708-5.688h-5.169v-3.919c0.001-1.644 0.444-2.769 2.735-2.769z"></path>
</symbol>
<symbol id="icon-telegram" viewBox="0 0 31 32">
<path fill="currentColor" d="M30.72 0.057l-30.72 17.274 9.818 3.635 15.142-14.191-11.518 15.533 0.009 0.004-0.012-0.004v8.459l5.506-6.421 6.974 2.582 4.8-26.871z"></path>
</symbol>
<symbol id="icon-burger-main" viewBox="0 0 34 32">
<path fill="#fff" style="fill: var(--color1, #fff)" d="M0.296 0.593h33.185v3.081h-33.185v-3.081zM0.296 14.459h33.185v3.081h-33.185v-3.081zM0.296 28.326h33.185v3.081h-33.185v-3.081z"></path>
</symbol>
</defs>
</svg>
